PathFileType	4	(X/Y/Z)	Run_300 02
DataRate	CameraRate	NumFrames	NumMarkers	Units	OrigDataRate	OrigDataStartFrame	OrigNumFrames
120	120	4	42	mm	120	402	128
Frame#	Time	LASI			RASI			LPSI			RPSI			RTH1			RTH2			RTH3			LTH1			LTH2			LTH3			RTB1			RTB2			LTB1			LTB2			LTB3			RCAL			RTOE			RMT5			LCAL			LTOE			LMT5			LACR			RACR			CLAV			C7			RUA1			RUA2			RUA3			RLEL			RMEL			LUA1			LUA2			LUA3			LLEL			LMEL			RFAsuperior			RFAradius			RFAulna			LFAsuperior			LFAradius			LFAulna			RTB3		
		X1	Y1	Z1	X2	Y2	Z2	X3	Y3	Z3	X4	Y4	Z4	X5	Y5	Z5	X6	Y6	Z6	X7	Y7	Z7	X8	Y8	Z8	X9	Y9	Z9	X10	Y10	Z10	X11	Y11	Z11	X12	Y12	Z12	X13	Y13	Z13	X14	Y14	Z14	X15	Y15	Z15	X16	Y16	Z16	X17	Y17	Z17	X18	Y18	Z18	X19	Y19	Z19	X20	Y20	Z20	X21	Y21	Z21	X22	Y22	Z22	X23	Y23	Z23	X24	Y24	Z24	X25	Y25	Z25	X26	Y26	Z26	X27	Y27	Z27	X28	Y28	Z28	X29	Y29	Z29	X30	Y30	Z30	X31	Y31	Z31	X32	Y32	Z32	X33	Y33	Z33	X34	Y34	Z34	X35	Y35	Z35	X36	Y36	Z36	X37	Y37	Z37	X38	Y38	Z38	X39	Y39	Z39	X40	Y40	Z40	X41	Y41	Z41	X42	Y42	Z42	

402	  3.350000	965.442959	1084.811106	-461.560689	952.008646	1095.535894	-203.739786	786.935136	1139.995709	-374.428145	779.704251	1130.930585	-289.982347	922.012940	921.732895	-154.043666	1013.169866	835.446336	-161.640421	989.237349	711.724138	-205.568620	820.476254	896.426449	-507.819427	816.024818	762.869734	-489.703786	705.490629	691.046237	-459.136976	1154.754292	456.759441	-289.601044	1148.205330	385.013334	-220.774310	614.114072	462.741122	-399.130853	524.857979	426.758195	-443.673678	463.338348	327.830313	-378.860225	1115.288396	108.968118	-314.033959	1343.396086	161.613696	-320.359620	1286.207019	110.548572	-234.425571	313.335074	328.748569	-348.124796	401.025929	111.921214	-350.660495	330.834459	161.453706	-425.871421	985.833551	1575.218298	-481.244969	922.315171	1577.845615	-156.821148	995.482498	1515.635446	-274.866480	884.010220	1599.671022	-332.542722	847.908770	1518.445692	-85.907617	806.894078	1435.928274	-83.323876	736.103000	1472.013469	-93.511246	639.636071	1369.108872	-47.421748	634.750539	1361.808183	-129.439535	985.438395	1487.569795	-558.084814	996.360391	1415.944962	-552.612688	903.074958	1400.299117	-579.703125	922.650341	1238.114342	-635.034449	857.608680	1224.093763	-573.713365	718.910189	1297.896161	-32.666080	845.795048	1180.202660	-98.916178	814.407181	1157.934117	-37.376633	1005.926610	1255.560693	-582.575605	1090.700836	1306.345719	-430.673611	1120.458006	1242.208792	-450.529449	1183.136545	292.277201	-294.235182	
403	  3.358333	967.093628	1084.145153	-460.455341	952.150973	1093.499185	-202.883137	788.069530	1138.362456	-375.590465	779.926031	1128.634440	-291.176206	920.558821	918.356167	-152.997232	1010.783325	830.214585	-158.844362	987.797068	708.849768	-205.736282	825.729760	892.205918	-507.075495	823.143758	758.401104	-487.396441	712.919772	685.759550	-459.666713	1154.270166	454.395596	-290.479433	1149.005487	382.888877	-221.230773	616.161034	460.884939	-398.199288	525.257749	429.088480	-442.933886	458.178537	334.547783	-378.075381	1118.949382	105.879658	-315.628534	1346.903311	159.692915	-316.437501	1287.333092	109.866853	-231.633900	306.447458	341.762871	-346.891448	388.112087	122.666913	-353.698943	319.846944	175.965303	-428.336008	987.114274	1573.396645	-479.731266	923.871361	1574.813321	-155.184533	996.179547	1513.365667	-273.856402	884.813265	1597.906449	-330.564740	850.666952	1513.805278	-83.424289	811.136130	1430.634524	-80.321692	739.615963	1465.411372	-88.543284	645.752212	1361.087244	-41.501648	639.922785	1353.221242	-123.494419	985.788743	1486.156825	-556.785342	995.749988	1414.576735	-551.789659	902.074735	1400.134173	-578.422502	919.191539	1237.892405	-634.665299	853.965510	1224.584006	-573.381020	726.630970	1291.382791	-27.359472	854.373420	1175.346426	-94.691830	824.593871	1153.369343	-32.147832	1002.890115	1253.023594	-582.199288	1089.195525	1300.648916	-430.021437	1117.509597	1236.145758	-450.578263	1184.462536	290.316324	-294.763200	
404	  3.366667	968.359145	1082.954313	-459.613695	951.970572	1090.944523	-202.296016	788.675369	1135.819524	-376.758271	779.871528	1125.633015	-292.509990	919.149337	914.889189	-151.598074	1009.503578	825.825219	-156.186055	987.235128	706.016621	-205.669609	831.479743	886.978281	-506.234147	831.088440	753.037631	-484.770630	721.568826	678.954401	-460.151700	1153.060770	451.320870	-291.302126	1148.454060	380.078341	-221.974843	619.749710	458.152086	-397.176588	527.506925	430.799368	-442.333958	454.652866	341.313714	-377.252751	1117.074463	102.258684	-317.143920	1345.613629	154.971262	-313.496889	1283.628658	106.581196	-230.026227	301.502281	355.498040	-346.381383	376.665541	134.224999	-356.539194	311.035685	191.162505	-431.002883	988.240190	1570.742050	-478.273393	925.625861	1570.901408	-153.533735	996.838301	1510.381348	-272.958472	885.617722	1595.475154	-328.432775	853.878397	1508.164129	-80.669483	815.947359	1424.247777	-77.221607	743.707016	1457.712110	-82.941204	652.629230	1352.051876	-34.987260	645.726567	1343.600699	-116.926522	985.945744	1483.926605	-555.589806	994.879999	1412.351052	-550.892343	900.861261	1399.216356	-577.247993	915.389736	1236.919310	-634.339682	850.086750	1224.326085	-572.983271	735.134985	1283.945429	-21.703434	863.627165	1169.659554	-90.282672	835.482320	1147.944553	-26.755015	999.551683	1249.587500	-581.983192	1087.690286	1293.638381	-429.712432	1114.399390	1228.940079	-451.199195	1182.797191	287.279412	-295.619701	
405	  3.375000	969.259463	1081.152329	-458.938086	951.575240	1087.868665	-202.052769	788.907208	1132.257204	-377.926359	779.663535	1121.826426	-293.941678	918.224841	911.588627	-150.422682	1009.703694	822.783243	-154.927753	987.304202	703.029425	-205.528942	837.505230	881.082961	-505.359501	839.503302	747.171436	-482.254296	731.091683	671.078262	-460.453337	1150.618357	446.965402	-291.999025	1146.165116	376.041927	-222.912137	624.936346	454.721244	-396.272786	531.692397	432.013037	-441.980554	453.059258	348.012751	-376.721096	1110.221014	 98.412854	-318.117270	1339.893258	147.295926	-312.094256	1275.930694	100.450016	-229.730210	299.153220	369.916345	-346.711079	366.740650	146.355629	-359.096055	304.361304	206.773997	-433.713936	989.106721	1567.278936	-476.860759	927.602444	1566.162331	-151.750133	997.477905	1506.587118	-272.123660	886.376331	1592.319082	-326.220092	857.533311	1501.570748	-77.667719	821.284406	1416.893254	-73.936069	748.386234	1448.989508	-76.858817	660.218875	1342.089852	-27.952321	651.985919	1333.055213	-109.783689	985.884908	1480.806969	-554.519616	993.711111	1409.205220	-549.971337	899.401268	1397.507073	-576.228242	911.285600	1235.166701	-634.078153	846.095064	1223.253400	-572.543041	744.344418	1275.631089	-15.731020	873.455499	1163.138195	-85.752348	846.961178	1141.670078	-21.297385	995.921953	1245.275177	-581.962309	1086.147947	1285.389069	-429.721138	1111.086996	1220.591763	-452.322799	1178.296861	282.729023	-296.490495	
